<svg width="13" height="14" viewBox="0 0 13 14" fill="none" xmlns="http://www.w3.org/2000/svg">
<path fill-rule="evenodd" clip-rule="evenodd" d="M11.9638 3.68872L11.8705 3.52206C11.7501 3.32052 11.5803 3.15301 11.3771 3.03539L6.9038 0.455391C6.70126 0.337891 6.47133 0.275804 6.23713 0.275391H6.0438C5.8096 0.275804 5.57966 0.337891 5.37713 0.455391L0.903798 3.04206C0.701779 3.1589 0.533972 3.3267 0.417132 3.52872L0.323799 3.69539C0.206299 3.89795 0.144212 4.12788 0.143799 4.36206V9.52872C0.144212 9.76292 0.206299 9.99286 0.323799 10.1954L0.417132 10.3621C0.536992 10.5617 0.704125 10.7289 0.903798 10.8487L5.3838 13.4287C5.58533 13.5487 5.81593 13.6109 6.05046 13.6087H6.23713C6.47133 13.6083 6.70126 13.5463 6.9038 13.4287L11.3771 10.8421C11.5811 10.7279 11.7496 10.5594 11.8638 10.3554L11.9638 10.1887C12.0799 9.98559 12.1419 9.75606 12.1438 9.52206V4.35539C12.1434 4.12122 12.0813 3.89128 11.9638 3.68872ZM6.0438 1.60872H6.23713L10.1438 3.86206L6.1438 6.16872L2.1438 3.86206L6.0438 1.60872ZM6.81046 11.9421L10.7105 9.68872L10.8105 9.52206V5.01539L6.81046 7.32872V11.9421Z" fill="black"/>
</svg>
