<svg width="71" height="37" viewBox="0 0 71 37" fill="none" xmlns="http://www.w3.org/2000/svg">
<g clip-path="url(#clip0_23_13)">
<path d="M68.0551 17.5235L68.018 17.5607C68.2782 16.8545 68.7985 16.5943 69.2445 16.5943C69.8764 16.5943 70.4339 17.0775 70.4339 17.7837C70.4339 17.9324 70.4339 18.1182 70.3596 18.3412C69.0587 21.6864 66.3082 23.3961 63.6321 23.6563C62.4056 25.7377 60.3985 27.2616 57.5365 27.2616C53.448 27.2616 51.6268 24.028 51.6268 20.497C51.6268 16.1483 54.3773 11.3164 58.9861 11.3164C59.9896 11.3164 60.8445 11.5395 61.5507 11.8368C63.6321 12.6173 64.9702 15.3306 64.9702 18.2297C64.9702 19.1589 64.8958 20.0881 64.6728 20.9802C66.0481 20.497 67.3489 19.3819 68.0551 17.5235ZM60.287 14.3642V14.3271C59.4693 14.3271 58.9861 15.4049 58.9861 16.7058C58.9861 18.6014 60.0268 20.3483 61.6622 20.9802C61.9224 20.1625 62.0339 19.2333 62.0339 18.1554C62.0339 16.074 61.402 14.3642 60.287 14.3642ZM57.5737 24.5483C58.6144 24.5483 59.6551 24.1023 60.4728 23.1731C58.0569 22.0952 56.533 19.5678 56.533 17.1518C56.533 16.3341 56.6817 15.4793 56.9047 14.7359C55.418 15.9625 54.5631 18.3784 54.5631 20.497C54.5631 23.2474 55.864 24.5483 57.5737 24.5483Z" fill="black"/>
<path d="M52.2006 17.5236L52.1634 17.5608C52.4236 16.8546 52.8696 16.5573 53.3156 16.5573C53.9475 16.5573 54.5793 17.1148 54.5793 17.821C54.5793 18.0068 54.5422 18.1555 54.4678 18.3413C53.0183 21.8723 50.8625 25.998 47.4059 28.4139L47.3316 29.1573C46.9227 33.6175 44.6555 36.4422 41.7935 36.4422C39.6377 36.4422 38.374 34.9555 38.374 33.2086C38.374 30.0493 41.6076 28.8971 44.6183 26.9644C44.6926 26.1838 44.7298 25.2918 44.7669 24.2882C43.2802 25.9236 41.682 26.5927 40.2696 26.5927C37.4448 26.5927 35.1404 24.2882 35.1404 20.7573C35.1404 15.3307 38.7085 11.7626 42.6855 11.7626H42.7227C45.436 11.7626 48.3351 13.2121 48.3351 15.8139C48.3351 16.6688 47.9634 21.3148 47.6661 24.9201C49.6731 23.0245 51.3457 19.9396 52.2006 17.5236ZM40.6784 23.9166C42.0537 23.9166 43.9121 23.0617 45.0643 18.8617C45.2501 17.9325 45.3616 17.1148 45.3245 16.1484C45.1015 15.1449 44.2466 14.5502 43.02 14.5502C40.4926 14.5502 38.0767 16.9661 38.0767 20.6458C38.0767 22.8759 39.1174 23.9166 40.6784 23.9166ZM42.0908 33.729H42.128C42.9085 33.729 43.7634 33.2086 44.3209 29.8635C42.6855 30.8298 41.1616 31.7962 41.1616 32.9484C41.1616 33.4316 41.5333 33.729 42.0908 33.729Z" fill="black"/>
<path d="M35.7926 17.5235L35.7555 17.5607C36.0156 16.8545 36.536 16.5943 36.982 16.5943C37.6139 16.5943 38.1714 17.0775 38.1714 17.7837C38.1714 17.9324 38.1714 18.1182 38.0971 18.3412C36.7962 21.6864 34.0457 23.3961 31.3696 23.6563C30.1431 25.7377 28.136 27.2616 25.274 27.2616C21.1855 27.2616 19.3643 24.028 19.3643 20.497C19.3643 16.1483 22.1147 11.3164 26.7236 11.3164C27.7271 11.3164 28.582 11.5395 29.2882 11.8368C31.3696 12.6173 32.7077 15.3306 32.7077 18.2297C32.7077 19.1589 32.6333 20.0881 32.4103 20.9802C33.7856 20.497 35.0864 19.3819 35.7926 17.5235ZM28.0245 14.3642V14.3271C27.2068 14.3271 26.7236 15.4049 26.7236 16.7058C26.7236 18.6014 27.7643 20.3483 29.3997 20.9802C29.6599 20.1625 29.7714 19.2333 29.7714 18.1554C29.7714 16.074 29.1395 14.3642 28.0245 14.3642ZM25.3112 24.5483C26.3519 24.5483 27.3926 24.1023 28.2103 23.1731C25.7944 22.0952 24.2705 19.5678 24.2705 17.1518C24.2705 16.3341 24.4192 15.4793 24.6422 14.7359C23.1555 15.9625 22.3006 18.3784 22.3006 20.497C22.3006 23.2474 23.6015 24.5483 25.3112 24.5483Z" fill="black"/>
<path d="M21.2534 16.3503C20.733 16.3503 20.287 16.6105 19.9896 17.3167C19.0233 19.7698 17.0161 23.9327 14.9718 23.9327C13.6846 23.9327 12.6885 23.6416 11.6819 23.3474C10.654 23.047 9.61516 22.7433 8.24427 22.7433C7.76107 22.7433 7.09203 22.8177 6.46016 22.9292C8.36374 20.3334 9.07488 17.1897 9.76396 11.2474C8.4665 11.1648 7.41109 10.9251 6.64181 10.683C5.82016 18.2195 4.8871 21.0931 1.47952 23.9327C1.0335 24.3044 0.810486 24.8248 0.810486 25.3452C0.810486 26.1629 1.5167 26.8691 2.40876 26.8691C2.70611 26.8691 3.04062 26.7576 3.37514 26.6089C5.27076 25.754 6.42299 25.531 7.83541 25.531C8.73358 25.531 9.80832 25.7879 10.959 26.0628C12.2844 26.3796 13.7105 26.7204 15.0834 26.7204C18.094 26.7204 20.064 23.7841 22.2569 18.0972C22.3685 17.9114 22.4056 17.6884 22.4056 17.5025C22.4056 16.7963 21.8481 16.3503 21.2534 16.3503Z" fill="black"/>
<path fill-rule="evenodd" clip-rule="evenodd" d="M6.8304 9.14489C7.50349 9.37986 8.55431 9.65342 9.91674 9.73435L10.1397 9.73424C14.3399 9.73424 17.0904 7.13242 17.0904 4.01023C17.0904 2.00311 15.5293 0.442017 13.3363 0.442017C10.3999 0.442017 8.35565 2.44914 7.31492 6.42621C6.01401 5.72 5.12196 4.45626 4.67593 2.858C4.45291 2.07745 3.96972 1.59425 3.30067 1.59425C2.48296 1.59425 1.96259 2.22613 1.96259 3.08101C1.96259 5.6085 3.93255 8.02447 6.83172 9.13954L6.8304 9.14489ZM10.3628 7.02091C10.9203 4.45626 11.8124 3.22969 13.0018 3.22969C13.6337 3.22969 14.0425 3.60138 14.0425 4.27042C14.0425 5.49699 12.7416 6.94657 10.3628 7.02091Z" fill="black"/>
</g>
<defs>
<clipPath id="clip0_23_13">
<rect width="70" height="36" fill="white" transform="translate(0.810486 0.442017)"/>
</clipPath>
</defs>
</svg>
